HIERARCHY
ROOT hip
{
  OFFSET 0 0 0
  CHANNELS 6 Xposition Yposition Zposition Zrotation Yrotation Xrotation
  JOINT abdomen
  {
    OFFSET 0 20.6881 -0.73152
    CHANNELS 3 Zrotation Xrotation Yrotation
    JOINT chest
    {
      OFFSET 0 11.7043 -0.48768
      CHANNELS 3 Zrotation Xrotation Yrotation
      JOINT neck
      {
        OFFSET 0 22.1894 -2.19456
        CHANNELS 3 Zrotation Xrotation Yrotation
        JOINT head
        {
          OFFSET -0.24384 7.07133 1.2192
          CHANNELS 3 Zrotation Xrotation Yrotation
          JOINT leftEye
          {
            OFFSET 4.14528 8.04674 8.04672
            CHANNELS 3 Zrotation Xrotation Yrotation
            End Site
            {
              OFFSET 1 0 0
            }
          }
          JOINT rightEye
          {
            OFFSET -3.6576 8.04674 8.04672
            CHANNELS 3 Zrotation Xrotation Yrotation
            End Site
            {
              OFFSET 1 0 0
            }
          }
        }
      }
      JOINT rCollar
      {
        OFFSET -2.68224 19.2634 -4.8768
        CHANNELS 3 Zrotation Xrotation Yrotation
        JOINT rShldr
        {
          OFFSET -8.77824 -1.95073 1.46304
          CHANNELS 3 Zrotation Xrotation Yrotation
          JOINT rForeArm
          {
            OFFSET -28.1742 -1.7115 0.48768
            CHANNELS 3 Zrotation Xrotation Yrotation
            JOINT rHand
            {
              OFFSET -22.5879 0.773209 7.07136
              CHANNELS 3 Zrotation Xrotation Yrotation
              JOINT rThumb1
              {
                OFFSET -1.2192 -0.487915 3.41376
                CHANNELS 3 Zrotation Xrotation Yrotation
                JOINT rThumb2
                {
                  OFFSET -3.37035 -0.52449 3.41376
                  CHANNELS 3 Zrotation Xrotation Yrotation
                  End Site
                  {
                    OFFSET -1.78271 -1.18214 1.43049
                  }
                }
              }
              JOINT rIndex1
              {
                OFFSET -7.75947 0.938293 5.60832
                CHANNELS 3 Zrotation Xrotation Yrotation
                JOINT rIndex2
                {
                  OFFSET -2.54057 -0.884171 1.56538
                  CHANNELS 3 Zrotation Xrotation Yrotation
                  End Site
                  {
                    OFFSET -1.62519 -0.234802 1.16502
                  }
                }
              }
              JOINT rMid1
              {
                OFFSET -8.24714 1.18213 3.41376
                CHANNELS 3 Zrotation Xrotation Yrotation
                JOINT rMid2
                {
                  OFFSET -3.10165 -0.590103 1.0647
                  CHANNELS 3 Zrotation Xrotation Yrotation
                  End Site
                  {
                    OFFSET -2.48547 -0.328903 0.83742
                  }
                }
              }
              JOINT rRing1
              {
                OFFSET -8.82822 0.546677 1.51678
                CHANNELS 3 Zrotation Xrotation Yrotation
                JOINT rRing2
                {
                  OFFSET -2.60934 -0.819778 -0.0198488
                  CHANNELS 3 Zrotation Xrotation Yrotation
                  End Site
                  {
                    OFFSET -2.33842 -0.294052 0.168128
                  }
                }
              }
              JOINT rPinky1
              {
                OFFSET -8.27202 -0.0477905 -0.4584
                CHANNELS 3 Zrotation Xrotation Yrotation
                JOINT rPinky2
                {
                  OFFSET -1.82734 -0.647385 -0.700984
                  CHANNELS 3 Zrotation Xrotation Yrotation
                  End Site
                  {
                    OFFSET -1.69225 -0.51767 -0.607171
                  }
                }
              }
            }
          }
        }
      }
      JOINT lCollar
      {
        OFFSET 2.68224 19.2634 -4.8768
        CHANNELS 3 Zrotation Xrotation Yrotation
        JOINT lShldr
        {
          OFFSET 8.77824 -1.95073 1.46304
          CHANNELS 3 Zrotation Xrotation Yrotation
          JOINT lForeArm
          {
            OFFSET 28.1742 -1.7115 0.48768
            CHANNELS 3 Zrotation Xrotation Yrotation
            JOINT lHand
            {
              OFFSET 22.5879 0.773209 7.07136
              CHANNELS 3 Zrotation Xrotation Yrotation
              JOINT lThumb1
              {
                OFFSET 1.2192 -0.487915 3.41376
                CHANNELS 3 Zrotation Xrotation Yrotation
                JOINT lThumb2
                {
                  OFFSET 3.37035 -0.52449 3.41376
                  CHANNELS 3 Zrotation Xrotation Yrotation
                  End Site
                  {
                    OFFSET 1.78271 -1.18214 1.43049
                  }
                }
              }
              JOINT lIndex1
              {
                OFFSET 7.75947 0.938293 5.60832
                CHANNELS 3 Zrotation Xrotation Yrotation
                JOINT lIndex2
                {
                  OFFSET 2.54057 -0.884171 1.56538
                  CHANNELS 3 Zrotation Xrotation Yrotation
                  End Site
                  {
                    OFFSET 1.62519 -0.234802 1.16502
                  }
                }
              }
              JOINT lMid1
              {
                OFFSET 8.24714 1.18213 3.41376
                CHANNELS 3 Zrotation Xrotation Yrotation
                JOINT lMid2
                {
                  OFFSET 3.10165 -0.590103 1.0647
                  CHANNELS 3 Zrotation Xrotation Yrotation
                  End Site
                  {
                    OFFSET 2.48547 -0.328903 0.83742
                  }
                }
              }
              JOINT lRing1
              {
                OFFSET 8.82822 0.546677 1.51678
                CHANNELS 3 Zrotation Xrotation Yrotation
                JOINT lRing2
                {
                  OFFSET 2.60934 -0.819778 -0.0198488
                  CHANNELS 3 Zrotation Xrotation Yrotation
                  End Site
                  {
                    OFFSET 2.33842 -0.294052 0.168128
                  }
                }
              }
              JOINT lPinky1
              {
                OFFSET 8.27202 -0.0477905 -0.4584
                CHANNELS 3 Zrotation Xrotation Yrotation
                JOINT lPinky2
                {
                  OFFSET 1.82734 -0.647385 -0.700984
                  CHANNELS 3 Zrotation Xrotation Yrotation
                  End Site
                  {
                    OFFSET 1.69225 -0.51767 -0.607171
                  }
                }
              }
            }
          }
        }
      }
    }
  }
  JOINT rButtock
  {
    OFFSET -8.77824 4.35084 1.2192
    CHANNELS 3 Zrotation Xrotation Yrotation
    JOINT rThigh
    {
      OFFSET 0 -1.70687 -2.19456
      CHANNELS 3 Zrotation Xrotation Yrotation
      JOINT rShin
      {
        OFFSET 0 -36.8199 0.73152
        CHANNELS 3 Zrotation Xrotation Yrotation
        JOINT rFoot
        {
          OFFSET 0.73152 -45.1104 -5.12064
          CHANNELS 3 Zrotation Xrotation Yrotation
          End Site
          {
            OFFSET -1.1221 -3.69964 12.103
          }
        }
      }
    }
  }
  JOINT lButtock
  {
    OFFSET 8.77824 4.35084 1.2192
    CHANNELS 3 Zrotation Xrotation Yrotation
    JOINT lThigh
    {
      OFFSET 0 -1.70687 -2.19456
      CHANNELS 3 Zrotation Xrotation Yrotation
      JOINT lShin
      {
        OFFSET 0 -36.8199 0.73152
        CHANNELS 3 Zrotation Xrotation Yrotation
        JOINT lFoot
        {
          OFFSET -0.73152 -45.1104 -5.12064
          CHANNELS 3 Zrotation Xrotation Yrotation
          End Site
          {
            OFFSET 1.1221 -3.69964 12.103
          }
        }
      }
    }
  }
}
MOTION
Frames:	4
Frame Time:	0.00833333
59.208 85.5068 -163.799 0.0 0.0 0.0 2.23593 -0.000458274 0.0604463 0.615846 0.00897704 0.106599 5.10643e-14 -7.95139e-16 1.24241e-16 1.53424e-13 3.18055e-15 2.95071e-16 -0.0 0.0 0.0 -0.0 0.0 0.0 2.54933e-14 -6.83322e-17 1.98785e-16 5.38463e-13 -1.27346e-15 3.57812e-15 9.26212e-12 -2.8138e-12 -6.99722e-14 1.05843e-10 2.49778e-12 3.02153e-13 2.49699e-10 -6.88793e-13 5.05708e-13 4.31212e-10 -1.18953e-12 8.44437e-13 2.49706e-10 -6.87795e-13 4.89805e-13 7.73091 5.47488 0.417314 2.49699e-10 -6.89485e-13 4.96167e-13 2.90554 0.965183 0.102902 2.4971e-10 -6.88988e-13 4.93781e-13 10.2786 0.731801 0.0259123 2.49697e-10 -6.87e-13 4.92986e-13 2.22167 -0.733487 -0.20892 2.53973e-14 -6.7944e-17 -1.49089e-16 5.34892e-13 -1.54679e-15 1.98785e-15 9.23737e-12 2.72216e-12 -6.99722e-14 1.05871e-10 -3.03755e-12 3.18055e-13 2.49709e-10 -6.84697e-13 4.89805e-13 4.31245e-10 -1.18317e-12 8.42847e-13 2.49704e-10 -6.83422e-13 4.96167e-13 -7.73091 5.47488 -0.417314 2.49709e-10 -6.84913e-13 4.86625e-13 -2.90554 0.965183 -0.102902 2.49703e-10 -6.85012e-13 4.93781e-13 -10.2786 0.731801 -0.0259123 2.49711e-10 -6.83819e-13 4.89805e-13 -2.22167 -0.733487 0.20892 -2.03217e-16 0.0 -3.88251e-19 2.21199 -7.80166 -0.224269 0.00521903 8.55962 0.135858 -0.549087 -0.766561 0.0462639 2.03217e-16 0.0 3.88251e-19 1.18439 -1.92859 -0.00254874 0.0090878 -2.07858 0.0749527 0.513275 3.99847 -0.140501
53.8525 85.2019 -170.146 -19.0062 -85.4346 22.1579 2.47522 -3.35405 -0.188454 0.218323 0.710297 0.0341007 0.102141 4.01324 -0.360715 1.13796 -9.29107 -0.404921 -0.0 0.0 0.0 -0.0 0.0 0.0 1.63972e-14 -6.74605e-14 5.28022e-17 2.57044 -8.60734 -1.07208 -2.77495 -1.06658 4.52238 0.0500349 4.9678 0.688752 7.46658e-11 -1.16585e-10 1.46508e-10 1.31457e-10 -1.73885e-10 2.552e-10 7.46725e-11 -1.16583e-10 1.46495e-10 7.73091 5.47488 0.417314 7.46665e-11 -1.16586e-10 1.46501e-10 2.90554 0.965183 0.102902 7.46762e-11 -1.16584e-10 1.46499e-10 10.2786 0.731801 0.0259123 7.46634e-11 -1.16581e-10 1.46499e-10 2.22167 -0.733487 -0.20892 1.62744e-14 -6.74598e-14 -2.83812e-16 -0.121123 -3.33311 -1.02734 2.79899 -1.07915 -4.55867 -0.00340178 -1.29968 0.182492 3.47607e-10 -7.51035e-10 8.7204e-11 6.01472e-10 -1.30108e-09 1.50611e-10 3.47602e-10 -7.51035e-10 8.72093e-11 -7.73091 5.47488 -0.417314 3.47607e-10 -7.51036e-10 8.72007e-11 -2.90554 0.965183 -0.102902 3.47601e-10 -7.51036e-10 8.72062e-11 -10.2786 0.731801 -0.0259123 3.47611e-10 -7.51034e-10 8.72032e-11 -2.22167 -0.733487 0.20892 -2.03217e-16 0.0 -3.88251e-19 1.04542 -4.40124 3.49631 0.0031693 7.8411 0.0864076 -1.52392 -8.63769 -8.35132 2.03217e-16 0.0 3.88251e-19 6.06357 0.506932 -2.16565 0.00339447 -2.42625 0.0111223 0.654111 -3.36312 1.82728
53.8322 85.2036 -170.159 -20.1666 -85.306 23.2228 2.69215 -6.91344 -0.453535 -0.19638 1.45335 -0.0426398 0.267553 8.25423 -0.749546 2.18082 -19.1058 -0.876079 -0.0 0.0 0.0 -0.0 0.0 0.0 7.05291e-15 -1.26144e-13 -4.96962e-17 4.91491 -17.688 -2.29425 -5.52914 -2.17367 9.31332 -0.0287635 10.1984 1.43169 -1.21266e-10 -3.02062e-10 2.99252e-10 -2.04246e-10 -4.64327e-10 5.21554e-10 -1.2126e-10 -3.02059e-10 2.99241e-10 7.73091 5.47488 0.417314 -1.21265e-10 -3.02064e-10 2.99248e-10 2.90554 0.965183 0.102902 -1.21256e-10 -3.0206e-10 2.99245e-10 10.2786 0.731801 0.0259123 -1.21269e-10 -3.02057e-10 2.99246e-10 2.22167 -0.733487 -0.20892 6.89974e-15 -1.26143e-13 -3.75827e-16 -0.389988 -6.86807 -2.12915 5.56994 -2.19614 -9.3799 0.00201338 -2.65935 0.373725 4.79775e-10 -1.62027e-09 1.68918e-10 8.31143e-10 -2.80718e-09 2.91719e-10 4.7977e-10 -1.62027e-09 1.68922e-10 -7.73091 5.47488 -0.417314 4.79775e-10 -1.62027e-09 1.68915e-10 -2.90554 0.965183 -0.102902 4.7977e-10 -1.62027e-09 1.68918e-10 -10.2786 0.731801 -0.0259123 4.79781e-10 -1.62027e-09 1.68916e-10 -2.22167 -0.733487 0.20892 -2.03217e-16 0.0 -3.88251e-19 -0.674442 -0.835646 7.39862 -0.000403843 7.08926 0.0346159 -5.11441 -16.3674 -17.7616 2.03217e-16 0.0 3.88251e-19 11.433 3.05246 -4.41283 -0.00337085 -2.78566 -0.056213 1.35632 -11.0672 3.9692
53.794 85.2165 -170.147 -20.0583 -85.2186 22.9479 2.86528 -10.0606 -0.69599 -0.571397 2.11293 -0.110979 0.460911 12.0378 -1.10377 2.97603 -27.8673 -1.35612 -0.0 0.0 0.0 -0.0 0.0 0.0 -1.79489e-15 -2.02245e-13 -2.39163e-16 6.65481 -25.7838 -3.53204 -7.82435 -3.1201 13.5853 -0.218718 14.8946 2.1301 -2.754e-10 -3.48377e-10 4.38512e-10 -4.68054e-10 -5.19277e-10 7.6391e-10 -2.75395e-10 -3.48373e-10 4.38504e-10 7.73091 5.47488 0.417314 -2.75399e-10 -3.48379e-10 4.38511e-10 2.90554 0.965183 0.102902 -2.75391e-10 -3.48374e-10 4.38508e-10 10.2786 0.731801 0.0259123 -2.75404e-10 -3.48369e-10 4.3851e-10 2.22167 -0.733487 -0.20892 -1.97128e-15 -2.02244e-13 -5.53258e-16 -0.726458 -9.98638 -3.1242 7.88658 -3.15558 -13.6947 0.0146808 -3.89889 0.548603 5.43403e-10 -2.25173e-09 2.60632e-10 9.41927e-10 -3.90087e-09 4.50148e-10 5.43399e-10 -2.25174e-09 2.60636e-10 -7.73091 5.47488 -0.417314 5.43404e-10 -2.25174e-09 2.60629e-10 -2.90554 0.965183 -0.102902 5.43398e-10 -2.25174e-09 2.60631e-10 -10.2786 0.731801 -0.0259123 5.43411e-10 -2.25173e-09 2.6063e-10 -2.22167 -0.733487 0.20892 -2.03217e-16 0.0 -3.88251e-19 -2.60402 2.33231 10.9115 -0.00467267 6.40402 -0.0119647 -10.6045 -22.2393 -27.0131 2.03217e-16 0.0 3.88251e-19 16.3742 5.34447 -6.52006 -0.0103194 -3.12157 -0.116643 2.50918 -17.9972 6.04974
